<?xml version="1.0" standalone="no"?>
<!DOCTYPE svg PUBLIC "-//W3C//DTD SVG 20010904//EN"
 "http://www.w3.org/TR/2001/REC-SVG-20010904/DTD/svg10.dtd">
<svg version="1.0" xmlns="http://www.w3.org/2000/svg"
 width="525.000000pt" height="525.000000pt" viewBox="0 0 525.000000 525.000000"
 preserveAspectRatio="xMidYMid meet">
<metadata>
Created by potrace 1.14, written by Peter Selinger 2001-2017
</metadata>
<g transform="translate(0.000000,525.000000) scale(0.100000,-0.100000)"
fill="#000000" stroke="none">
<path d="M3297 4978 c-36 -124 -128 -480 -125 -482 15 -11 109 -66 112 -66 3
0 37 -19 78 -43 40 -24 94 -55 120 -70 l47 -27 14 52 c20 70 114 426 122 458
6 24 -3 31 -152 115 -87 49 -168 95 -180 102 -20 14 -22 12 -36 -39z"/>
<path d="M2640 4707 c-18 -9 -121 -178 -352 -577 -180 -311 -333 -576 -341
-590 -16 -31 -354 -614 -379 -655 -10 -16 -21 -37 -25 -45 -4 -8 -20 -37 -36
-65 -16 -27 -73 -124 -125 -215 -52 -91 -120 -208 -150 -260 -99 -172 -201
-348 -221 -382 -20 -35 -47 -83 -255 -442 -75 -131 -126 -230 -126 -246 0 -15
10 -36 22 -48 20 -18 151 -96 398 -237 110 -63 125 -71 365 -210 121 -70 234
-136 250 -146 17 -10 41 -24 55 -32 14 -7 144 -82 289 -165 145 -84 274 -152
287 -152 12 0 34 10 48 23 20 18 136 213 313 527 11 19 67 116 125 215 162
279 299 516 321 555 11 19 86 150 167 290 81 140 157 271 168 290 18 33 341
591 560 970 333 574 343 594 338 625 -7 38 -22 49 -214 161 l-159 92 -216
-116 c-200 -107 -217 -118 -233 -154 -23 -51 -99 -119 -155 -139 -82 -29 -202
-8 -264 48 -64 57 -104 145 -99 218 3 54 25 126 40 132 7 2 57 -23 111 -56 54
-34 105 -65 113 -71 8 -5 48 -29 88 -54 40 -25 78 -46 85 -46 6 0 26 8 42 18
17 10 84 47 150 82 135 71 229 121 325 172 36 20 103 56 150 80 47 25 135 71
195 103 163 86 190 102 188 110 -2 6 -120 85 -128 85 -2 0 -43 26 -92 58 -48
32 -105 68 -125 81 l-38 23 -32 -20 c-18 -10 -82 -45 -143 -77 -60 -32 -137
-72 -170 -90 -33 -18 -105 -56 -160 -85 -55 -29 -152 -81 -215 -115 -63 -35
-150 -81 -194 -104 -43 -22 -83 -44 -90 -49 -6 -5 -20 -12 -31 -16 -14 -5 -9
4 15 27 19 19 96 66 170 104 156 81 212 112 223 122 6 6 -41 36 -182 116 -45
26 -161 92 -181 104 -149 89 -404 232 -422 236 -13 3 -34 -1 -48 -8z"/>
</g>
</svg>
